<?xml version="1.0" standalone="no"?>
<!DOCTYPE svg PUBLIC "-//W3C//DTD SVG 20010904//EN"
 "http://www.w3.org/TR/2001/REC-SVG-20010904/DTD/svg10.dtd">
<svg version="1.0" xmlns="http://www.w3.org/2000/svg"
 width="400.000000pt" height="400.000000pt" viewBox="0 0 400.000000 400.000000"
 preserveAspectRatio="xMidYMid meet" style="background-color: #4EAD50;">

<g transform="translate(0.000000,400.000000) scale(0.100000,-0.100000)"
fill="#000" stroke="none">
<path d="M1229 3212 c-74 -43 -210 -122 -304 -176 -93 -54 -180 -105 -193
-113 l-22 -14 2 -336 3 -336 190 -108 190 -107 5 -159 5 -158 87 -50 c48 -27
88 -52 88 -55 0 -3 -21 -16 -46 -30 -26 -13 -66 -37 -90 -52 l-44 -28 0 -197
0 -198 332 -189 c183 -104 337 -189 342 -189 6 0 59 21 119 47 l108 47 107
-47 c59 -26 112 -47 118 -47 11 0 596 331 647 365 l27 19 0 195 0 194 -44 28
c-24 15 -64 39 -90 52 -25 14 -46 27 -46 30 0 3 40 28 88 55 l87 50 5 158 5
159 190 108 190 108 3 336 2 335 -22 14 c-13 8 -99 59 -193 113 -93 54 -230
133 -304 176 l-134 78 -31 -19 c-104 -63 -597 -341 -605 -341 -7 0 -516 285
-607 341 l-31 19 -134 -78z m165 -155 c15 -10 32 -15 39 -11 7 4 9 4 5 -1 -10
-11 84 -76 100 -70 7 3 11 1 8 -3 -3 -5 11 -14 30 -21 20 -7 32 -17 28 -23 -5
-8 -1 -9 10 -5 22 8 96 -31 96 -50 0 -7 5 -13 11 -13 5 0 7 5 4 10 -9 15 4 12
21 -5 12 -12 12 -15 2 -16 -7 0 -2 -5 12 -11 24 -10 24 -10 5 -18 -23 -10 -5
-13 19 -4 9 3 13 10 10 16 -3 5 14 0 37 -12 47 -24 65 -37 37 -27 -10 4 -18 2
-18 -3 0 -9 14 -14 32 -11 14 2 93 -55 96 -69 2 -8 3 -264 3 -569 0 -425 2
-558 12 -569 10 -13 9 -14 -9 -4 -12 6 -24 9 -27 5 -4 -3 -18 2 -33 12 -19 12
-23 19 -14 25 8 5 5 9 -9 13 -12 3 -19 1 -15 -4 10 -16 -8 -9 -21 8 -12 16
-14 16 -29 0 -10 -9 -23 -17 -29 -17 -7 0 -3 7 7 15 21 16 10 21 -13 6 -8 -5
-11 -15 -8 -23 7 -20 -27 -40 -42 -25 -7 7 -12 8 -11 2 5 -22 -1 -29 -11 -15
-7 10 -12 11 -15 3 -3 -7 -14 -2 -29 13 -13 13 -34 24 -47 25 l-23 0 23 9 c30
12 28 15 -10 16 -43 1 -88 14 -88 25 0 5 -4 9 -8 9 -4 0 -37 16 -72 36 -36 19
-54 32 -40 28 33 -9 24 -1 -28 24 -23 11 -39 15 -35 10 3 -7 1 -8 -5 -4 -7 4
-12 13 -12 21 0 9 -7 11 -22 7 -13 -3 -19 -1 -15 6 4 5 1 13 -5 16 -10 5 -10
7 1 12 10 5 10 8 1 14 -9 5 -13 48 -14 145 -1 132 -2 137 -25 156 -13 11 -30
18 -38 15 -7 -3 -12 -2 -12 2 4 22 -3 31 -18 25 -12 -5 -14 -3 -8 7 6 10 4 12
-10 7 -9 -4 -24 -2 -32 5 -13 10 -13 13 3 18 16 6 15 7 -4 12 -12 4 -20 2 -16
-3 11 -18 -15 -8 -45 17 -17 14 -36 22 -42 18 -8 -5 -9 -3 -4 6 6 10 4 12 -8
7 -10 -4 -16 -2 -14 6 1 7 -6 11 -15 11 -10 -1 -18 2 -18 7 0 5 -8 9 -17 9
-31 0 -70 33 -68 58 1 12 -2 22 -7 22 -5 0 -7 4 -4 9 3 4 6 99 6 210 1 189 2
201 20 201 10 0 20 5 22 11 3 9 21 15 58 19 10 1 9 4 -5 10 -18 7 -18 8 8 15
15 4 27 11 27 16 0 5 9 9 20 9 11 0 20 5 20 10 0 6 9 10 21 10 13 0 18 4 13
12 -4 7 -3 8 5 4 6 -4 17 -1 25 6 40 38 56 47 82 42 21 -4 25 -2 17 8 -8 10
-2 19 24 35 19 13 31 18 27 12 -3 -6 3 -5 15 3 12 7 21 16 21 21 0 4 4 6 9 3
5 -3 11 0 14 8 7 18 26 15 61 -7z m1181 -185 c-3 -3 -11 0 -18 7 -9 10 -8 11
6 5 10 -3 15 -9 12 -12z m58 11 c-7 -2 -19 -2 -25 0 -7 3 -2 5 12 5 14 0 19
-2 13 -5z m-129 -18 c-22 -17 -34 -19 -34 -6 0 5 8 12 18 14 32 9 36 7 16 -8z
m220 0 c25 -19 9 -19 -24 0 -14 8 -19 14 -10 14 8 0 24 -6 34 -14z m-264 -21
c0 -9 -43 -43 -55 -44 -5 0 2 11 15 24 24 24 40 32 40 20z m350 -19 c10 -12
10 -15 -2 -15 -8 0 -15 7 -15 15 0 8 1 15 2 15 2 0 8 -7 15 -15z m62 -69 c7 4
8 2 4 -5 -9 -14 -36 3 -36 23 0 6 5 3 11 -7 6 -9 15 -14 21 -11z m-522 -27
c-6 -10 -13 -19 -16 -19 -2 0 0 8 5 19 6 10 7 22 3 26 -4 5 -1 5 6 1 9 -5 9
-12 2 -27z m204 -10 c8 -12 12 -28 9 -37 -4 -10 -2 -13 5 -8 13 8 16 -6 5 -18
-5 -4 -8 -13 -8 -19 0 -5 -11 -11 -23 -12 -13 -1 -28 -8 -34 -16 -7 -11 -11
-11 -15 -1 -2 6 -9 12 -14 12 -6 0 -7 -4 -4 -10 3 -6 -1 -7 -10 -4 -14 6 -18
16 -30 77 -2 9 0 17 5 17 4 0 10 9 13 20 8 29 80 28 101 -1z m170 -1 c9 -12
16 -18 16 -12 0 5 -5 15 -12 22 -19 19 22 15 44 -5 22 -20 24 -37 3 -29 -8 3
-15 1 -15 -4 0 -6 7 -10 16 -10 11 0 14 -5 9 -17 -4 -10 -8 -23 -8 -30 0 -7
-4 -10 -8 -8 -4 3 -15 2 -24 -1 -13 -5 -14 -8 -3 -15 9 -6 3 -9 -17 -9 -23 0
-27 3 -15 10 12 8 9 10 -12 10 -31 0 -59 37 -39 50 7 4 9 15 5 25 -5 12 -1 22
11 31 25 19 31 18 49 -8z m-421 -83 c-3 -9 -8 -14 -10 -11 -3 3 -2 9 2 15 9
16 15 13 8 -4z m624 -42 c-3 -10 -5 -2 -5 17 0 19 2 27 5 18 2 -10 2 -26 0
-35z m-625 -68 c-2 -19 -6 -35 -8 -35 -2 0 -4 16 -4 35 0 19 4 35 8 35 4 0 6
-16 4 -35z m255 -8 c3 -4 1 -7 -5 -7 -7 0 -12 -5 -12 -11 0 -6 7 -8 15 -5 12
4 15 -2 13 -30 -2 -27 -9 -39 -34 -54 -40 -25 -55 -25 -77 0 -20 24 -22 34 -4
24 6 -4 4 2 -6 14 -26 28 -15 67 14 51 18 -9 19 -8 10 9 -9 17 -7 19 34 17 25
-1 48 -4 52 -8z m208 0 c22 -22 28 -57 11 -57 -9 0 -16 -5 -16 -11 0 -6 7 -8
16 -5 30 12 8 -19 -29 -39 -36 -20 -36 -20 -51 0 -12 15 -16 16 -16 5 0 -8 -7
-3 -16 13 -14 25 -13 30 6 54 11 14 18 29 15 32 -4 3 -10 -1 -15 -9 -6 -8 -10
-10 -10 -4 0 30 79 46 105 21z m162 -9 c-3 -8 -6 -5 -6 6 -1 11 2 17 5 13 3
-3 4 -12 1 -19z m-26 -55 c-12 -20 -14 -14 -5 12 4 9 9 14 11 11 3 -2 0 -13
-6 -23z m-576 -13 c3 -5 1 -10 -4 -10 -6 0 -11 5 -11 10 0 6 2 10 4 10 3 0 8
-4 11 -10z m557 -33 c-7 -8 -8 -18 -4 -22 4 -5 1 -5 -5 -1 -10 5 -10 11 -1 26
7 11 14 17 17 15 2 -3 -1 -11 -7 -18z m-496 -57 c8 0 12 -4 9 -10 -3 -5 2 -10
12 -11 12 0 13 -2 5 -6 -15 -6 -62 34 -62 51 0 6 5 3 11 -6 5 -10 17 -18 25
-18z m399 -49 c-3 -6 -14 -11 -23 -11 -13 0 -13 2 4 14 21 15 30 14 19 -3z
m-328 -7 c-3 -3 -12 -4 -19 -1 -8 3 -5 6 6 6 11 1 17 -2 13 -5z m83 -24 c11
-8 7 -9 -15 -4 -37 8 -45 14 -19 14 10 0 26 -5 34 -10z m167 4 c-3 -3 -12 -4
-19 -1 -8 3 -5 6 6 6 11 1 17 -2 13 -5z m-1224 -796 c-2 -5 3 -8 11 -8 9 0 16
-4 16 -10 0 -5 3 -9 8 -9 22 4 30 -3 25 -21 -3 -11 0 -20 6 -20 6 0 10 3 10 8
-3 19 3 22 24 10 12 -7 26 -11 31 -10 5 2 4 -3 -3 -12 -9 -11 -9 -16 0 -22 7
-4 9 -3 6 3 -4 6 0 14 9 17 10 4 13 2 8 -6 -5 -8 -1 -9 12 -5 18 7 18 6 -1 -9
-20 -16 -20 -16 2 -9 28 8 100 -32 107 -60 4 -15 8 -17 17 -8 9 9 18 8 38 -6
33 -24 60 -28 86 -14 11 6 36 10 56 9 29 -2 34 0 25 10 -6 6 -15 9 -20 6 -5
-3 -6 0 -2 6 4 6 14 8 23 5 11 -4 14 -3 9 5 -14 23 27 12 76 -19 l48 -31 2
-82 c2 -86 -2 -219 -7 -224 -6 -6 -55 10 -50 17 2 4 -5 15 -16 24 -19 17 -27
9 -9 -9 7 -7 0 -10 -24 -10 -19 1 -32 4 -29 9 2 4 0 7 -6 7 -5 0 -14 -6 -18
-14 -9 -15 -53 -40 -53 -30 0 3 -11 -1 -25 -10 -14 -9 -31 -14 -37 -10 -7 4
-8 3 -4 -4 8 -13 6 -14 -36 -16 -25 -2 -32 5 -29 26 0 4 -7 4 -16 1 -11 -4
-13 -8 -5 -11 7 -2 12 -8 12 -13 0 -5 -9 -4 -19 3 -11 7 -17 16 -14 22 4 5 -1
7 -10 3 -9 -3 -18 0 -21 9 -3 8 -15 14 -26 14 -12 0 -19 4 -16 9 3 5 -6 12
-19 15 -15 4 -23 11 -19 17 4 7 0 9 -13 5 -12 -4 -31 3 -53 19 -19 14 -40 25
-47 25 -7 0 -10 6 -8 13 6 16 -12 44 -22 34 -4 -5 -1 -12 7 -17 10 -6 11 -10
3 -10 -7 0 -21 9 -31 20 -12 13 -25 18 -35 14 -20 -7 -22 7 -5 24 8 8 9 12 1
12 -6 0 -13 -5 -15 -11 -2 -6 -22 0 -48 15 -25 14 -41 26 -35 26 5 0 -1 7 -14
16 -21 15 -22 21 -16 82 3 36 8 69 11 74 3 4 1 8 -4 8 -5 0 -9 6 -9 14 0 8 6
12 15 8 11 -4 13 -1 7 8 -6 10 -4 12 8 7 10 -4 20 0 25 9 5 9 13 16 18 16 5 0
8 4 7 8 -1 4 6 6 16 3 10 -2 25 3 34 11 8 9 21 16 27 16 6 0 9 3 7 8 -3 4 5 7
18 7 13 0 21 -3 18 -7z"/>
<path d="M1245 3000 c-3 -5 -2 -10 4 -10 5 0 13 5 16 10 3 6 2 10 -4 10 -5 0
-13 -4 -16 -10z"/>
<path d="M1393 2923 c9 -2 23 -2 30 0 6 3 -1 5 -18 5 -16 0 -22 -2 -12 -5z"/>
<path d="M1359 2907 l24 -14 -31 1 c-16 0 -28 4 -25 9 9 15 -20 6 -44 -13 -14
-11 -34 -20 -45 -20 -11 0 -17 -4 -13 -9 3 -5 1 -12 -5 -16 -5 -3 -10 -1 -10
5 0 5 -12 -4 -27 -20 -16 -17 -37 -32 -47 -34 -11 -1 -22 -9 -24 -17 -3 -11
-1 -11 8 1 10 13 11 13 7 0 -2 -8 -13 -16 -25 -18 -12 -2 -22 -8 -22 -14 0 -5
7 -8 15 -5 12 5 12 0 -2 -28 -9 -19 -21 -35 -26 -35 -5 0 -4 -6 2 -14 7 -8 8
-15 2 -18 -5 -1 -11 -24 -13 -50 -2 -26 -7 -51 -11 -54 -4 -4 -7 -14 -6 -23 0
-12 3 -11 9 4 7 16 9 17 9 3 1 -9 4 -24 8 -34 5 -13 3 -15 -8 -10 -8 4 -6 1 5
-8 10 -8 15 -19 12 -25 -3 -5 2 -17 11 -27 10 -10 18 -20 18 -23 1 -3 9 -19
19 -36 9 -16 15 -21 11 -11 -5 16 -3 17 9 6 9 -6 14 -15 13 -18 -1 -4 3 -9 8
-12 21 -10 44 -34 39 -42 -3 -4 3 -5 12 -1 12 4 15 3 10 -5 -5 -8 -1 -10 10
-5 12 4 15 3 10 -5 -5 -8 -2 -10 9 -5 10 3 21 0 26 -8 6 -10 34 -14 106 -15
104 -1 126 3 117 17 -3 5 2 6 10 3 9 -3 16 -1 16 4 0 6 15 16 34 23 19 7 34
17 33 23 -1 6 4 10 11 8 7 -1 22 8 32 20 21 26 40 17 19 -9 -12 -17 -12 -17 4
-2 19 17 13 53 -7 43 -6 -2 -1 3 12 12 12 9 22 27 22 40 0 13 9 31 19 41 17
15 19 28 14 83 -3 36 -6 88 -7 117 -1 47 -2 50 -14 30 l-13 -22 4 23 c3 12 1
22 -3 22 -5 0 -10 10 -12 23 -2 12 -9 21 -16 19 -7 -1 -17 10 -22 24 -6 14
-19 28 -30 31 -11 3 -20 9 -20 14 0 5 -7 9 -16 9 -14 0 -14 3 -4 15 8 9 9 15
2 15 -6 0 -13 -4 -17 -10 -3 -5 -19 -1 -38 10 -18 11 -50 20 -72 21 -32 0 -36
2 -20 9 16 7 13 9 -17 9 -20 1 -45 4 -55 7 -10 3 -8 -1 6 -9z m66 -130 c2 -7
6 -35 9 -63 6 -50 5 -52 -26 -73 -18 -11 -28 -21 -22 -21 5 0 15 4 22 10 7 5
5 2 -4 -8 -14 -16 -17 -15 -40 11 -30 34 -31 47 -3 42 17 -3 19 -2 9 10 -7 8
-17 12 -23 8 -7 -4 -8 0 -4 11 4 10 7 32 7 49 0 30 3 32 36 34 20 1 37 -3 39
-10z m-127 -178 c-9 -6 -7 -9 9 -9 24 0 34 -18 22 -41 -11 -21 -122 -24 -143
-3 -19 18 -12 38 17 52 41 20 127 21 95 1z m310 -23 l2 -44 -70 -1 c-57 -1
-70 2 -70 15 0 8 -5 12 -11 8 -8 -4 -8 -1 -1 12 5 11 7 24 5 30 -2 7 7 12 22
12 20 0 25 -4 21 -17 -5 -14 -5 -14 7 1 7 9 31 18 53 21 21 2 39 4 40 5 0 1 2
-18 2 -42z m-411 28 c-3 -3 -12 -4 -19 -1 -8 3 -5 6 6 6 11 1 17 -2 13 -5z
m221 -107 c10 4 13 2 8 -5 -4 -7 -4 -12 1 -12 4 0 8 -27 8 -60 l0 -61 -40 3
-40 3 0 60 c0 50 3 60 17 59 11 -1 15 4 11 15 -5 12 -3 13 7 4 7 -6 19 -9 28
-6z m302 -2 c0 -8 -4 -15 -10 -15 -5 0 -7 7 -4 15 4 8 8 15 10 15 2 0 4 -7 4
-15z"/>
<path d="M1277 2549 c7 -7 15 -10 18 -7 3 3 -2 9 -12 12 -14 6 -15 5 -6 -5z"/>
<path d="M1491 2554 c0 -11 3 -14 6 -6 3 7 2 16 -1 19 -3 4 -6 -2 -5 -13z"/>
<path d="M1634 2894 c-18 -14 -18 -15 4 -4 12 6 22 13 22 15 0 8 -5 6 -26 -11z"/>
<path d="M1715 2830 c3 -5 11 -10 16 -10 6 0 7 5 4 10 -3 6 -11 10 -16 10 -6
0 -7 -4 -4 -10z"/>
<path d="M1741 2614 c0 -11 3 -14 6 -6 3 7 2 16 -1 19 -3 4 -6 -2 -5 -13z"/>
<path d="M1051 2414 c0 -11 3 -14 6 -6 3 7 2 16 -1 19 -3 4 -6 -2 -5 -13z"/>
<path d="M1710 2415 c0 -8 4 -15 10 -15 5 0 7 7 4 15 -4 8 -8 15 -10 15 -2 0
-4 -7 -4 -15z"/>
<path d="M930 2343 c-13 -15 -12 -16 4 -10 10 4 20 7 22 7 2 0 4 5 4 10 0 15
-13 12 -30 -7z"/>
<path d="M1689 2316 c0 -6 -2 -23 -3 -38 -1 -15 3 -29 9 -31 5 -3 49 -4 96 -4
72 1 86 4 81 16 -4 10 -1 13 11 8 15 -6 16 -3 7 13 -6 11 -8 24 -5 29 7 13
-37 20 -122 19 -47 0 -73 -4 -74 -12z"/>
<path d="M1000 2310 c8 -5 20 -10 25 -10 6 0 3 5 -5 10 -8 5 -19 10 -25 10 -5
0 -3 -5 5 -10z"/>
<path d="M1565 2270 c-3 -5 -2 -10 4 -10 5 0 13 5 16 10 3 6 2 10 -4 10 -5 0
-13 -4 -16 -10z"/>
<path d="M1450 1726 c0 -3 9 -10 20 -16 11 -6 20 -8 20 -6 0 3 -9 10 -20 16
-11 6 -20 8 -20 6z"/>
<path d="M1570 1666 c0 -2 8 -10 18 -17 15 -13 16 -12 3 4 -13 16 -21 21 -21
13z"/>
<path d="M2459 2704 c-5 -15 -8 -29 -5 -31 2 -2 8 10 14 26 13 38 5 41 -9 5z"/>
<path d="M2671 2704 c0 -11 3 -14 6 -6 3 7 2 16 -1 19 -3 4 -6 -2 -5 -13z"/>
<path d="M2691 2664 c0 -11 3 -14 6 -6 3 7 2 16 -1 19 -3 4 -6 -2 -5 -13z"/>
<path d="M2690 2479 c0 -5 5 -7 10 -4 6 3 10 8 10 11 0 2 -4 4 -10 4 -5 0 -10
-5 -10 -11z"/>
<path d="M1718 1323 c7 -3 16 -2 19 1 4 3 -2 6 -13 5 -11 0 -14 -3 -6 -6z"/>
<path d="M2016 1315 c13 -10 15 -14 5 -15 -8 0 -12 -2 -9 -5 3 -3 13 -2 23 1
17 7 17 8 -1 21 -10 7 -22 13 -28 13 -5 0 -1 -7 10 -15z"/>
</g>
</svg>
